<svg xmlns="http://www.w3.org/2000/svg" id="atarim-logo-heb" width="115.33" height="64.063" viewBox="0 0 115.33 64.063">
    <defs>
        <style>
            .cls-1{fill:#fff}
        </style>
    </defs>
    <path id="Path_105" d="M247.2 26.946c.1-.669 1.543-.665 1.522.388-.025 1.2.167 6.244-.437 6.92-.523.594.4 3.858.331 4.584a22.353 22.353 0 0 0 0 4.228 14.581 14.581 0 0 1 .263 3.94 18.391 18.391 0 0 0-.164 4.267c.153 1.486-.377 20.65-.405 21.24a20.87 20.87 0 0 1 .22 2.372c-.071.242-2.575.356-2.571.028s1.33-1.9 1.476-2.77a13.215 13.215 0 0 0-.306-3.677 5.73 5.73 0 0 1-.519-2.749c.171-1.209-.626-5.267-.594-5.818s.412-1.376.484-2.514-.356-2.215.092-3.133a7.8 7.8 0 0 0 .914-2.585 15.09 15.09 0 0 0-.647-2.215c-.032-.324.288-.356.26-.573s-1.821.1-2.095 0-.2-.53.356-.558c.672-.039.69-.117.964-.711a4.491 4.491 0 0 0 .6-2.368c-.068-1.067-.5-2.134-.32-2.888a10.43 10.43 0 0 0 .231-3.2 13.384 13.384 0 0 1-.437-3.435 9.67 9.67 0 0 0 .039-3.862 2.557 2.557 0 0 1 .178-2.29 9.965 9.965 0 0 0 .565-2.61" class="cls-1" data-name="Path 105" transform="translate(-157.792 -17.068)"/>
    <path id="Path_106" d="M278.79 43.761h-.025a7.189 7.189 0 0 1-.889.089 1.814 1.814 0 0 1-.284-.021 1.921 1.921 0 0 0-.356-.036 1.021 1.021 0 0 0-.654.228 4.408 4.408 0 0 1-1.65.437 6.393 6.393 0 0 0-1.422.583 4.694 4.694 0 0 1-1.394.281c-.356 0-.75.316-1.195.469a1.614 1.614 0 0 1-.537.089 2.813 2.813 0 0 1-.537-.064c-.277-.046-.313-.043-.4-.32-.043-.128-.117-.185-.181-.185a.1.1 0 0 0-.1.1c0 .128.316.839.228.878h-.032a.206.206 0 0 1-.082-.028.171.171 0 0 0-.1-.032.149.149 0 0 0-.064 0 7.3 7.3 0 0 1-.871.53 1.3 1.3 0 0 1-.284.028 5.582 5.582 0 0 1-.917-.11.775.775 0 0 0-.156 0 5.832 5.832 0 0 0-1.188.356 10.636 10.636 0 0 1-1.127.089c-.238.05-1.881.853-2.415.925a2.55 2.55 0 0 0-1.113.541 5.949 5.949 0 0 1-1.536.558h-.06a2.6 2.6 0 0 1-.711-.153 3.162 3.162 0 0 0-.555-.149h-.025c-.139.036.181 1.067.3 1.067.2 0 .729-.313.981-.356s8.478-2.073 9.093-2.315a8.619 8.619 0 0 1 1.839-.43 6.8 6.8 0 0 0 1.65-.569 10.352 10.352 0 0 1 1.8-.487 12.61 12.61 0 0 1 1.814-.711.213.213 0 0 1 .1.021.445.445 0 0 0 .188.028 17.94 17.94 0 0 0 2.809-.654.351.351 0 0 0 .021-.686" class="cls-1" data-name="Path 106" transform="translate(-166.333 -28.192)"/>
    <path id="Path_107" d="M260.063 106.35c-.149 0-.661.889-.594.971a6.112 6.112 0 0 0 .932.487c.22.132 7.165 4.978 7.749 5.27a8 8 0 0 1 1.54 1.092 6.843 6.843 0 0 0 1.518.85 10.635 10.635 0 0 1 1.561 1.024c.252.2 1.682.644 1.778.981a13.26 13.26 0 0 0 2.453 1.832.356.356 0 0 0 .21.068c.284 0 .48-.38.3-.544a4.413 4.413 0 0 1-.829-.839 1.092 1.092 0 0 0-.8-.615 4.627 4.627 0 0 1-1.422-.946 6.84 6.84 0 0 0-1.373-.665 4.559 4.559 0 0 1-1.134-.861 5.263 5.263 0 0 0-1.145-.576 2.024 2.024 0 0 1-.733-.793c-.146-.242-.171-.267-.021-.526.1-.171.036-.3-.053-.3a.107.107 0 0 0-.068.025c-.107.075-.4.779-.5.779-.082-.039-.025-.167-.149-.235a6.439 6.439 0 0 1-.974-.292 3.371 3.371 0 0 1-.736-.964c-.228-.391-.729-.491-1.134-.789a10.918 10.918 0 0 1-.814-.786c-.192-.149-1.885-.832-2.29-1.188a2.489 2.489 0 0 0-1.152-.455 5.689 5.689 0 0 1-1.422-.772c-.284-.267-.541-1.134-.665-1.216h-.018" class="cls-1" data-name="Path 107" transform="translate(-167.196 -68.531)"/>
    <path id="Path_108" d="M259.289 131.521a14.783 14.783 0 0 0 .281-1.949c-.028-.313-.228-.754-.587-.612s-.441.772-.274 1.181a3.328 3.328 0 0 1 .21 1.376 5.576 5.576 0 0 1-.153 1.422c-.092.288-.124.356.231.693s.729.622.736 1.17a1.6 1.6 0 0 1-.356 1.12c-.178.178-.178.384.2.651s.757.477.8.629.1.288.377.245a1 1 0 0 1 .516.188s2.045-1.526.925-2.535a2.009 2.009 0 0 1-.626-.9c-.039-.249-.032-.765-.327-.907a12.246 12.246 0 0 0-1.213-.356c-.2-.071-.971-.164-.754-1.422" class="cls-1" data-name="Path 108" transform="translate(-166.657 -83.083)"/>
    <path id="Path_109" d="M263.939 36.957a19.893 19.893 0 0 0-2.6.356c-.381.153-.861.573-.53.985s1.166.288 1.618-.075a4.2 4.2 0 0 1 1.661-.779 7.175 7.175 0 0 1 1.87-.32c.405 0 .509.025.786-.555s.487-1.177 1.181-1.387a2.134 2.134 0 0 1 1.572.032c.3.167.562.089.743-.5s.292-1.156.466-1.27a.378.378 0 0 0 .156-.58 1.362 1.362 0 0 1 .021-.74s-2.8-2.087-3.613-.263a2.521 2.521 0 0 1-.877 1.139c-.3.142-.96.324-1.017.757a16.284 16.284 0 0 0 .068 1.7c0 .281.2 1.319-1.5 1.5" class="cls-1" data-name="Path 109" transform="translate(-167.993 -20.052)"/>
    <path id="Path_110" d="M298.642 99.505a16.913 16.913 0 0 0-2.038-.818c-.338-.05-.868.053-.8.484s.711.686 1.206.612a3.62 3.62 0 0 1 1.54.128 6.331 6.331 0 0 1 1.49.541c.288.178.356.228.807-.071s.853-.637 1.444-.5a1.778 1.778 0 0 1 1.127.669c.146.242.356.3.754-.05s.711-.711.875-.711.338-.039.356-.356c.018-.231.327-.519.327-.519s-1.134-2.639-2.489-1.675a2.223 2.223 0 0 1-1.12.452c-.281-.025-.836-.167-1.067.117a13.32 13.32 0 0 0-.676 1.241c-.128.2-.42 1.024-1.728.452" class="cls-1" data-name="Path 110" transform="translate(-190.609 -62.522)"/>
    <path id="Path_111" d="M266.576 10.2c-.1-.22-1.326-2.816-1.422-2.959s-.167-.149-.263-.053-3.272 3.382-3.677 3.784l-.452-.206a.051.051 0 1 0-.043.092l1.334.612-.96 2.269-.6-.263s.6-1.373.647-1.494.018-.132 0-.149a.313.313 0 0 0 0-.181.224.224 0 0 0-.117-.132 12.639 12.639 0 0 0-.814-.356h-.032v.032s.676.3.811.356a.181.181 0 0 1 .1.1.3.3 0 0 1 0 .156.114.114 0 0 0-.068.068c-.064.142-1.472 3.2-1.582 3.449s.146.26.078.356-.857 1.376-.857 1.376l1.846.957 2.219-4.321 2.6-.569a3.411 3.411 0 0 1 .576-1.424c.3-.3.864-1.067.679-1.5" class="cls-1" data-name="Path 111" transform="translate(-166.672 -4.588)"/>
    <path id="Path_112" d="M306.851 72.852c.1-.149 1.294-1.956 1.351-2.07s.028-.167-.071-.2l-3.841-.989-.043-.381a.038.038 0 1 0-.075.011l.121 1.117-1.824.228-.064-.5 1.209-.142c.06 0 .089-.039.089-.068a.213.213 0 0 0 .114-.068.167.167 0 0 0 .039-.132c0-.117-.075-.654-.078-.676h-.021l-.018.021s.071.558.078.676a.128.128 0 0 1-.028.1.224.224 0 0 1-.1.057.085.085 0 0 0-.071-.021c-.117 0-2.628.26-2.82.274s-.11.2-.206.2l-1.213-.046.1 1.59 3.624-.185 1.39 1.49a2.468 2.468 0 0 1 1.152-.167c.309.085 1.017.164 1.223-.124" class="cls-1" data-name="Path 112" transform="translate(-192.919 -44.457)"/>
    <path id="Path_113" d="M270.88 103.212c.221-.16 2.792-2.162 2.927-2.3s.124-.224 0-.309l-5.06-3.2.121-.555a.064.064 0 0 0-.046-.071.06.06 0 0 0-.071.046l-.356 1.636-2.738-.523.146-.74s1.657.356 1.806.356c.092 0 .146 0 .16-.053a.384.384 0 0 0 .2-.043.246.246 0 0 0 .117-.167c.043-.171.2-.964.206-1a.032.032 0 0 0-.021-.036.035.035 0 0 0-.036.025s-.164.825-.206.992a.181.181 0 0 1-.089.132.355.355 0 0 1-.174.036.121.121 0 0 0-.089-.06c-.174-.039-3.912-.864-4.189-.932s-.256.224-.391.178-1.725-.624-1.725-.624l-.612 2.294 5.3 1.422 1.294 2.759a3.808 3.808 0 0 1 1.7.313c.405.267 1.39.711 1.821.395" class="cls-1" data-name="Path 113" transform="translate(-168.032 -61.862)"/>
    <path id="Path_114" d="M264 164.813c.178.036 2.315.356 2.443.377s.164-.039.146-.142-.69-3.485-.768-3.912l.32-.192a.036.036 0 0 0-.05-.053l-.953.569-.992-1.565.42-.26s.594.953.651 1.035.071.068.1.057a.235.235 0 0 0 .11.075.16.16 0 0 0 .132-.018c.1-.057.555-.338.576-.356v-.028h-.028s-.469.3-.573.356a.135.135 0 0 1-.1 0 .238.238 0 0 1-.1-.068.078.078 0 0 0 0-.071c-.06-.1-1.366-2.287-1.462-2.454s-.224-.021-.263-.107-.484-1.12-.484-1.12l-1.387.743 1.732 3.2-.74 1.878a2.489 2.489 0 0 1 .626.967c.057.316.292.992.64 1.067" class="cls-1" data-name="Path 114" transform="translate(-168.664 -101.131)"/>
    <path id="Path_115" d="M292.28 59.773a11.336 11.336 0 0 0 2.4.637.15.15 0 0 0 .05-.3c-.1-.028-.494-.117-.91-.2-.2-.043-.156-.174-.156-.174l.459-1.76.356-.448c.928.5 1.259 1.067 1.17 1.4-.121.455-.59 2.087-.594 2.1a.135.135 0 0 0 .26.075s.473-1.65.594-2.109c.156-.59-.43-1.287-1.529-1.821h-.032l-.519-.267c-.388-.2-.437-.11-.512.092s-1.067 2.621-1.035 2.781" class="cls-1" data-name="Path 115" transform="translate(-188.343 -36.601)"/>
    <path id="Path_116" d="M281.375 7.58a10.6 10.6 0 0 0 2.3-.565.139.139 0 0 0-.089-.263c-.1.021-.466.128-.853.245-.188.057-.21-.071-.21-.071l-.4-1.657.1-.526c1 0 1.522.3 1.6.619.1.43.441 1.984.445 2a.121.121 0 0 0 .149.1.124.124 0 0 0 .1-.149c0-.018-.356-1.575-.448-2.006-.132-.555-.935-.864-2.095-.8h-.583c-.413 0-.416.107-.391.309s.288 2.639.38 2.756" class="cls-1" data-name="Path 116" transform="translate(-181.066 -2.893)"/>
    <path id="Path_117" d="M268.251 135.249a13.96 13.96 0 0 0 2.564-1.7.186.186 0 0 0-.231-.292c-.107.068-.516.356-.935.679-.206.153-.292 0-.292 0l-1.27-1.885-.124-.711c1.227-.445 2.013-.3 2.262.071.327.491 1.465 2.272 1.476 2.29a.167.167 0 0 0 .231.053.164.164 0 0 0 .05-.231s-1.152-1.8-1.479-2.3c-.423-.633-1.558-.665-2.959-.085l-.032.018-.676.26c-.5.2-.462.316-.334.555s1.579 3.154 1.75 3.257" class="cls-1" data-name="Path 117" transform="translate(-171.679 -84.24)"/>
    <path id="Path_118" d="M265.283 118.085l-2.6 1.127a12.568 12.568 0 0 0-.5-1.337 6.7 6.7 0 0 0-1.245-1.184 8.207 8.207 0 0 0-1.341-.178l.356-2.663 2.763 2.351 1.092.651.651-.185z" class="cls-1" data-name="Path 118" transform="translate(-167.278 -73.364)"/>
    <path id="Path_119" d="M262.2 38.956l-.356 1.842s-.733-.217-.921-.235a4.545 4.545 0 0 0-1.113.224 5.417 5.417 0 0 0-.6.661l-1.312-1.206 2.326-.6.768-.356.146-.423z" class="cls-1" data-name="Path 119" transform="translate(-166.183 -25.041)"/>
    <path id="Path_120" d="M313.533 87.072l-1.159 2.2s-.85-.548-1.067-.64a5.942 5.942 0 0 0-1.5-.124 7.116 7.116 0 0 0-1.01.612l-1.217-2.02 3.176.092 1.1-.153.356-.484z" class="cls-1" data-name="Path 120" transform="translate(-198.203 -55.779)"/>
    <path id="Path_121" d="M286.32 16.559l-.412 2.294s-.9-.288-1.124-.316a5.359 5.359 0 0 0-1.351.256 6.251 6.251 0 0 0-.711.811l-1.622-1.538 2.816-.711.925-.413.171-.523z" class="cls-1" data-name="Path 121" transform="translate(-181.139 -10.581)"/>
    <path id="Path_122" d="M261.75 88.295a4.1 4.1 0 0 1 1.159.526 1.811 1.811 0 0 0 1.383.658c.917.121 6.422.757 6.757.8a5.75 5.75 0 0 0 1.622-.146c.48-.139.59-.427.555-.711-.1-.829-.8-.789-1.181-.782a5.863 5.863 0 0 1-2.457.142 1.675 1.675 0 0 1-.853-.2 2.228 2.228 0 0 0-1.842-.309c-.274.142-.58.473-1 .316s-2.287-.768-2.432-.818-.38.2-.676.1-.733-.284-.733-.284z" class="cls-1" data-name="Path 122" transform="translate(-168.67 -56.436)"/>
    <path id="Path_123" d="M304.72 62.1a2.251 2.251 0 0 1 .711.1 1.035 1.035 0 0 0 .846.139c.512-.078 3.574-.594 3.752-.626a3.108 3.108 0 0 0 .85-.331c.238-.149.249-.32.185-.469-.185-.43-.555-.3-.757-.238a3.124 3.124 0 0 1-1.3.462.935.935 0 0 1-.491.025 1.234 1.234 0 0 0-1.038.121c-.124.121-.235.356-.487.327s-1.348-.057-1.422-.06-.171.167-.356.156-.437-.039-.437-.039z" class="cls-1" data-name="Path 123" transform="translate(-196.36 -39.057)"/>
    <path id="Path_124" d="M277.65 149.143a3.027 3.027 0 0 1 .548.711 1.309 1.309 0 0 0 .644.878c.533.381 3.752 2.61 3.94 2.742a3.982 3.982 0 0 0 1.067.448.448.448 0 0 0 .583-.274c.21-.558-.238-.768-.477-.889a3.952 3.952 0 0 1-1.579-.711c-.171-.117-.4-.242-.466-.416a1.561 1.561 0 0 0-1.045-.807c-.217 0-.519.114-.729-.128s-1.17-1.248-1.245-1.326-.306 0-.452-.164-.356-.427-.356-.427z" class="cls-1" data-name="Path 124" transform="translate(-178.916 -95.873)"/>
    <path id="Path_125" d="M260.088 62.413a.412.412 0 0 0 0 .484 12.31 12.31 0 0 0 2.134.068 9.545 9.545 0 0 0 1.732-.2c.6-.149 2.418-.573 2.418-.573s.018-.978 0-1.088-.028-.356-.565-.206a4.267 4.267 0 0 1-1.27.185 3.29 3.29 0 0 0-1.191.167c-.487.156-3.129 1.088-3.24 1.166" class="cls-1" data-name="Path 125" transform="translate(-167.549 -39.21)"/>
    <path id="Path_126" d="M271.959 152.579a.53.53 0 0 0-.573.26 16.034 16.034 0 0 0 1.092 2.543 12.092 12.092 0 0 0 1.191 1.935c.509.629 2.009 2.543 2.009 2.543s1.163-.519 1.28-.6.413-.231-.064-.782a5.335 5.335 0 0 1-.917-1.4 4.438 4.438 0 0 0-.853-1.316c-.455-.487-3.008-3.1-3.165-3.179" class="cls-1" data-name="Path 126" transform="translate(-174.878 -98.314)"/>
    <path id="Path_127" d="M291.965 119.507a.583.583 0 0 0-.309.615 16.361 16.361 0 0 0 2.681 1.422 13.2 13.2 0 0 0 2.351.839c.871.188 3.471.8 3.471.8s.64-1.245.683-1.4.192-.484-.594-.626a5.953 5.953 0 0 1-1.746-.565 4.818 4.818 0 0 0-1.639-.541c-.711-.1-4.7-.587-4.9-.551" class="cls-1" data-name="Path 127" transform="translate(-187.936 -77.002)"/>
    <path id="Path_128" d="M255.191 8.85l1.565 1.245s-.615.509-.74.654a4.086 4.086 0 0 0-.405 1.067 4.859 4.859 0 0 0 .3.843l-1.91.477.711-2.258.1-.821-.324-.334z" class="cls-1" data-name="Path 128" transform="translate(-163.676 -5.703)"/>
    <path id="Path_129" d="M272.727 68.25a10.45 10.45 0 0 1-1.867.74 6.953 6.953 0 0 1-1.55.021l.729 1.2 2.8-.651a2.133 2.133 0 0 1-.11-1.312" class="cls-1" data-name="Path 129" transform="translate(-173.542 -43.98)"/>
    <path id="Path_130" d="M305.362 111.334a11.359 11.359 0 0 1-2.411.356 8.222 8.222 0 0 1-1.881-.48l.629 1.81 3.521.071a3.111 3.111 0 0 1 .142-1.753" class="cls-1" data-name="Path 130" transform="translate(-194.008 -71.663)"/>
    <path id="Path_131" d="M300.023 94.407l.128-1.4-2.251-.3-.53 1.782z" class="cls-1" data-name="Path 131" transform="translate(-191.623 -59.735)"/>
    <path id="Path_132" d="M294.854 26.64l.092-1.045-1.675-.224-.391 1.329z" class="cls-1" data-name="Path 132" transform="translate(-188.73 -16.348)"/>
    <path id="Path_133" d="M264.232 0l-1.362 1.817 1.294 1.334L265.395.8z" class="cls-1" data-name="Path 133" transform="translate(-169.392)"/>
    <path id="Path_134" d="M255.717 168.7l1.195-.455-.651-1.956-1.661.277z" class="cls-1" data-name="Path 134" transform="translate(-164.063 -107.156)"/>
    <path id="Path_135" d="M282.77 130.52a4.182 4.182 0 0 0 1.959 2.671l1.44-1z" class="cls-1" data-name="Path 135" transform="translate(-182.215 -84.106)"/>
    <path id="Path_136" d="M303.42 52.832a4.177 4.177 0 0 0 3.2.853l.5-1.686z" class="cls-1" data-name="Path 136" transform="translate(-195.522 -33.508)"/>
    <path id="Path_137" d="M276.707 66.584v-.356H276v-.6l-1.906-.032.018-1.021-1.735-.032v-.8h-.747l.021-1.383.028-1.55h-.26l.028-1.533h-.156l.018-.989h-.1a.391.391 0 0 0-.313-.381v-.587h-.196v.587a.391.391 0 0 0-.324.356h-.1l-.018 1.028h-.117l.007 1.472h-.277l-.025 1.55-.025 1.312h-.772c-.775 0-.092.608-.846.6-.5 0-.064 1.028-.665 1.017s-.384-.957-1-.964-.473.747-1.145.733-.6-.377-.974-.384-.573.224-.932.217-.4-.2-.395-.384 0-.142 0-.324-.06-.309-.32-.313h-.765l-.057 3.2 16.031.281v-.683z" class="cls-1" data-name="Path 137" transform="translate(-168.805 -36.937)"/>
    <path id="Path_138" d="M288.045 145.038l.092-.149-.306-.2.16-.249-.839-.548.274-.423-.768-.5.217-.331-.331-.213.356-.573.416-.644-.114-.071.413-.637-.068-.043.267-.413-.046-.028a.2.2 0 0 0-.039-.245l.156-.245-.082-.05-.156.242a.2.2 0 0 0-.242.064l-.046-.028-.274.423-.053-.032-.4.622-.124-.078-.416.644-.356.544-.356-.224c-.356-.22-.2.231-.533 0-.224-.146-.3.412-.562.242s.075-.509-.192-.683-.405.181-.711 0-.171-.324-.334-.43-.313-.068-.473-.171-.124-.2-.075-.27.036-.06.085-.135.053-.146-.06-.22l-.338-.22-.825 1.319 7.077 4.623.185-.284z" class="cls-1" data-name="Path 138" transform="translate(-181.307 -89.88)"/>
    <path id="Path_139" d="M298.75 31.475l-.043-.156-.327.085-.071-.263-.9.238-.121-.437-.821.22-.092-.356-.356.092-.164-.612-.185-.686-.121.032-.181-.679-.075.021-.117-.441h-.05a.178.178 0 0 0-.192-.124l-.071-.26-.089.021.071.26a.185.185 0 0 0-.107.206h-.046l.121.455h-.053l.178.665-.132.036.185.686.156.583-.356.1c-.356.1.036.281-.32.377-.238.064.1.462-.185.537s-.3-.356-.59-.292-.124.391-.444.477-.334-.085-.509-.036-.238.174-.409.22-.213-.036-.235-.117l-.039-.146c-.021-.078-.068-.124-.192-.092l-.356.1.381 1.422 7.574-2.031-.082-.3z" class="cls-1" data-name="Path 139" transform="translate(-187.847 -18.14)"/>
    <path id="Rectangle_1" d="M0 0h2.607v1.305H0z" class="cls-1" data-name="Rectangle 1" transform="translate(64.93 47.648)"/>
    <path id="Rectangle_2" d="M0 0h2.607v1.305H0z" class="cls-1" data-name="Rectangle 2" transform="translate(35.984 49.785)"/>
    <path id="Path_140" d="M8.552 102.253H8.09v-1.177h.185a2.8 2.8 0 0 0 1.462-.288 1.786 1.786 0 0 0 .665-1.625v-2.846H6.188V93.54H5.32v-1.12h2.02v2.66h4.3v4.267a2.92 2.92 0 0 1-.629 1.945 3.016 3.016 0 0 1-2.454.946" class="cls-1" data-name="Path 140" transform="translate(-3.428 -59.555)"/>
    <path id="Path_141" d="M8.449 102.124v-.071h-.391v-1.021h.114a2.845 2.845 0 0 0 1.5-.3 1.867 1.867 0 0 0 .711-1.686V96.11H6.17v-2.77h-.882v-.978h1.86v2.66h4.314v4.21a2.87 2.87 0 0 1-.612 1.9 2.953 2.953 0 0 1-2.4.917v.142a3.093 3.093 0 0 0 2.511-.971 2.98 2.98 0 0 0 .644-1.991V94.88H7.294v-2.66H5.16v1.262h.853v2.76h4.214v2.792a1.707 1.707 0 0 1-.633 1.565 2.727 2.727 0 0 1-1.422.277h-.256v1.319h.533z" class="cls-1" data-name="Path 141" transform="translate(-3.325 -59.426)"/>
    <path id="Path_142" d="M34.143 103.577a3.481 3.481 0 0 1-.8 2.4 3.9 3.9 0 0 1-3.055 1.1h-3.507v-5.957H25.64V99.9H28v3.1h.48a.836.836 0 0 0 .64-.2 1.255 1.255 0 0 0 .22-.868V99.9h1.184v2.575a1.494 1.494 0 0 1-.491 1.184 1.778 1.778 0 0 1-1.2.423h-.818v1.778h2.258a3.154 3.154 0 0 0 1.9-.469 2.243 2.243 0 0 0 .761-1.91v-2.361h-1.192V99.9h2.4z" class="cls-1" data-name="Path 142" transform="translate(-16.522 -64.375)"/>
    <path id="Path_143" d="M34.039 103.448h-.071a3.414 3.414 0 0 1-.782 2.354 3.828 3.828 0 0 1-3 1.067H26.75v-5.953h-1.142v-1.067h2.215v3.1h.555a.914.914 0 0 0 .693-.217l-.053-.05.053.05a1.334 1.334 0 0 0 .238-.917v-1.973h1.042v2.489a1.422 1.422 0 0 1-.48 1.127 1.689 1.689 0 0 1-1.159.409h-.889v1.933h2.333a3.2 3.2 0 0 0 1.944-.5 2.32 2.32 0 0 0 .789-1.966V100.9H31.71v-1.065h2.258v3.606h.142V99.7h-2.542v1.362h1.177v2.3a2.17 2.17 0 0 1-.733 1.853 3.087 3.087 0 0 1-1.856.459h-2.187v-1.639h.747a1.838 1.838 0 0 0 1.248-.441 1.568 1.568 0 0 0 .53-1.238V99.7h-1.326v2.109a1.238 1.238 0 0 1-.2.821.793.793 0 0 1-.59.171h-.409V99.7H25.48v1.362h1.141v5.953h3.563a3.934 3.934 0 0 0 3.108-1.117 3.556 3.556 0 0 0 .818-2.45z" class="cls-1" data-name="Path 143" transform="translate(-16.419 -64.246)"/>
    <path id="Path_144" d="M65.742 108.865h-1.234v-7.755h-2.247v2.464h-1.266v-2.464h-1.028l-.007-1.22h5.782z" class="cls-1" data-name="Path 144" transform="translate(-38.638 -64.369)"/>
    <path id="Path_145" d="M65.613 108.737v-.071h-1.166v-7.756h-2.386v2.464h-1.124v-2.464h-1.028l-.009-1.078h5.64v8.9h.142V99.69H59.76l.007 1.366h1.028v2.461H62.2v-2.461h2.1v7.752h1.38v-.071z" class="cls-1" data-name="Path 145" transform="translate(-38.509 -64.24)"/>
    <path id="Path_146" d="M82.251 107.066H81v-5.953h-1.59V99.89h2.841z" class="cls-1" data-name="Path 146" transform="translate(-51.171 -64.369)"/>
    <path id="Path_147" d="M82.122 106.937v-.071h-1.177v-5.956h-1.593v-1.074h2.7v7.1h.142V99.69H79.21v1.366h1.59v5.953h1.39v-.071z" class="cls-1" data-name="Path 147" transform="translate(-51.042 -64.24)"/>
    <path id="Path_148" d="M97.371 107.066H96.14v-5.953h-2.7v5.953H92.2v-5.953h-1.116V99.89h6.291z" class="cls-1" data-name="Path 148" transform="translate(-58.691 -64.369)"/>
    <path id="Path_149" d="M97.235 106.937v-.071h-1.159v-5.956h-2.845v5.956h-1.1v-5.956h-1.112v-1.074h6.148v7.1h.142V99.69H90.87l.007 1.366h1.117v5.953h1.38v-5.953h2.56v5.953h1.373v-.071z" class="cls-1" data-name="Path 149" transform="translate(-58.556 -64.24)"/>
    <path id="Path_150" d="M112.948 103.136h1.216v4h-1.209zm5.306 3.94h-1.244v-5.956h-4.41V99.9h5.654z" class="cls-1" data-name="Path 150" transform="translate(-72.559 -64.375)"/>
    <path id="Path_151" d="M112.826 107h.071v-3.912h1.067v3.826h-1.134v.146h1.28v-4.132h-1.351v4.146h.071zm5.306-.06v-.071h-1.17v-5.956h-4.413v-1.064h5.512v7.112h.146V99.7h-5.8v1.362h4.413v5.953h1.387v-.071z" class="cls-1" data-name="Path 151" transform="translate(-72.436 -64.246)"/>
    <path id="Path_152" d="M146.721 107.073h-1.245v-5.953h-2.422v3.243a3.3 3.3 0 0 1-.6 2.2 2.484 2.484 0 0 1-1.92.711h-.43v-1.206h.32a1.451 1.451 0 0 0 1.021-.3 2.115 2.115 0 0 0 .356-1.444v-3.2h-1.17V99.9h6.092z" class="cls-1" data-name="Path 152" transform="translate(-90.28 -64.375)"/>
    <path id="Path_153" d="M146.593 106.944v-.071h-1.174v-5.956h-2.567v3.318a3.252 3.252 0 0 1-.583 2.159 2.384 2.384 0 0 1-1.87.679h-.356V106h.249a1.522 1.522 0 0 0 1.067-.324 2.216 2.216 0 0 0 .356-1.494V100.9h-1.17v-1.061h5.946v7.112h.146V99.7h-6.207v1.362h1.17v3.138a2.106 2.106 0 0 1-.331 1.394l.05.05-.05-.05a1.39 1.39 0 0 1-.971.281h-.4v1.348h.5a2.545 2.545 0 0 0 1.974-.711 3.349 3.349 0 0 0 .622-2.255v-3.172h2.272v5.953h1.387v-.071z" class="cls-1" data-name="Path 153" transform="translate(-90.151 -64.246)"/>
    <path id="Path_154" d="M165.873 107.073h-3.713v-1.209h1.721v-4.744h-1.23V99.9h2.464v5.964h.565a2.934 2.934 0 0 0 1.451-.26 1.728 1.728 0 0 0 .64-1.582v-2.9h-1.195V99.9h2.432v4.157q0 3.012-3.151 3.016" class="cls-1" data-name="Path 154" transform="translate(-104.495 -64.375)"/>
    <path id="Path_155" d="M165.769 106.944v-.071h-3.641v-1.067h1.735v-4.89h-1.23v-1.067h2.322v5.967h.637a3.023 3.023 0 0 0 1.486-.274 1.8 1.8 0 0 0 .676-1.643v-2.976h-1.195v-1.067h2.287v4.086a2.9 2.9 0 0 1-.768 2.208 3.236 3.236 0 0 1-2.311.736v.142a3.344 3.344 0 0 0 2.411-.775 3.06 3.06 0 0 0 .811-2.311V99.7h-2.575v1.362h1.195v2.845a1.657 1.657 0 0 1-.608 1.522 2.845 2.845 0 0 1-1.422.249h-.494V99.7h-2.607v1.362h1.222v4.6H162v1.351h3.769z" class="cls-1" data-name="Path 155" transform="translate(-104.392 -64.246)"/>
    <path id="Path_156" d="M187.658 107.066h-1.248v-5.953h-1.59V99.89h2.838z" class="cls-1" data-name="Path 156" transform="translate(-119.097 -64.369)"/>
    <path id="Path_157" d="M187.522 106.937v-.071h-1.177v-5.956h-1.59v-1.074h2.7v7.1h.142V99.69h-2.987v1.366h1.59v5.953h1.39v-.071z" class="cls-1" data-name="Path 157" transform="translate(-118.962 -64.24)"/>
    <path id="Path_158" d="M201.309 101.113h-.832V99.89h2.02v3.9h-1.067l1.248 1.86v1.419h-5.323l-.018-1.209h4.025l-3.275-4.744h-.907V99.89h1.5l2.624 3.755z" class="cls-1" data-name="Path 158" transform="translate(-127.062 -64.369)"/>
    <path id="Path_159" d="M201.18 100.984v-.075h-.757v-1.073h1.877v3.752h-1.134l1.312 1.952v1.326h-5.185l-.014-1.063h4.093L198 100.91h-.875v-1.074h1.394l2.738 3.908v-2.834h-.075v.075h-.071v2.3l-2.518-3.6h-1.613v1.366h.942l3.176 4.6h-3.965l.021 1.351h5.466V105.5l-1.184-1.767h1.006V99.69h-2.166v1.366h.9v-.071z" class="cls-1" data-name="Path 159" transform="translate(-126.933 -64.24)"/>
    <path id="Path_160" d="M220.688 107.066h-1.241v-5.953h-3.73l-.007-1.223h4.979z" class="cls-1" data-name="Path 160" transform="translate(-139.002 -64.369)"/>
    <path id="Path_161" d="M220.56 106.937v-.071h-1.17v-5.956h-3.73l-.007-1.074h4.836v7.1h.142V99.69h-5.121l.007 1.366h3.73v5.953h1.383v-.071z" class="cls-1" data-name="Path 161" transform="translate(-138.873 -64.24)"/>
    <path id="Path_162" d="M58.831 140.343h-1.248v-5.953H55.99v-1.22h2.841z" class="cls-1" data-name="Path 162" transform="translate(-36.08 -85.814)"/>
    <path id="Path_163" d="M58.7 140.214v-.071h-1.175v-5.953h-1.593v-1.077h2.7v7.1h.139v-7.243H55.79v1.362h1.593v5.956h1.39v-.075z" class="cls-1" data-name="Path 163" transform="translate(-35.951 -85.685)"/>
    <path id="Path_164" d="M74.2 137.405a2.891 2.891 0 0 1-.665 1.97 3.419 3.419 0 0 1-2.692.971H68.17v-1.191h2.63a2.724 2.724 0 0 0 1.522-.338 1.856 1.856 0 0 0 .647-1.625v-2.8h-2.488v2.508h-1.248v-2.51h-1.038v-1.22H74.2z" class="cls-1" data-name="Path 164" transform="translate(-43.928 -85.814)"/>
    <path id="Path_165" d="M74.092 137.3h-.072a2.788 2.788 0 0 1-.651 1.924 3.331 3.331 0 0 1-2.635.942h-2.6V139.1h2.56a2.766 2.766 0 0 0 1.561-.356 1.93 1.93 0 0 0 .679-1.686v-2.845h-2.615v2.487h-1.124v-2.489h-1.039v-1.067h5.864v4.164h.142V133h-6.144v1.362h1.049v2.489h1.422v-2.489h2.329v2.713a1.78 1.78 0 0 1-.619 1.568 2.656 2.656 0 0 1-1.479.324H68v1.351h2.745a3.483 3.483 0 0 0 2.745-1 2.951 2.951 0 0 0 .683-2.016z" class="cls-1" data-name="Path 165" transform="translate(-43.819 -85.704)"/>
    <path id="Path_166" d="M90.063 137.334v-2.952H88.52v-1.212h2.774v4.161z" class="cls-1" data-name="Path 166" transform="translate(-57.042 -85.814)"/>
    <path id="Path_167" d="M89.934 137.205h.075v-3.023h-1.547v-1.07h2.631v4.018l-1.159.007V137.28l1.3-.007v-4.3H88.32v1.355h1.543v2.955h.075z" class="cls-1" data-name="Path 167" transform="translate(-56.913 -85.685)"/>
    <path id="Path_168" d="M118.183 140.343H112.4l-.007-1.206h3.659v-4.747H112.4l-.007-1.22h4.9v5.967h.9z" class="cls-1" data-name="Path 168" transform="translate(-72.423 -85.814)"/>
    <path id="Path_169" d="M118.054 140.214v-.071h-5.715l-.007-1.063h3.659v-4.89h-3.652l-.007-1.077h4.754v5.967h.9v1.134h.142v-1.277h-.9v-5.967h-5.038l.007 1.362h3.652v4.605h-3.659l.007 1.351h5.928v-.075z" class="cls-1" data-name="Path 169" transform="translate(-72.295 -85.685)"/>
    <path id="Path_170" d="M133.017 137.334v-2.952h-1.547v-1.212h2.777v4.161z" class="cls-1" data-name="Path 170" transform="translate(-84.718 -85.814)"/>
    <path id="Path_171" d="M132.888 137.205h.071v-3.023h-1.543v-1.07h2.628v4.018l-1.156.007V137.28l1.3-.007v-4.3h-2.92v1.355h1.547v2.955h.071z" class="cls-1" data-name="Path 171" transform="translate(-84.59 -85.685)"/>
    <path id="Path_172" d="M148.646 140.343h-5.789l-.007-1.206h3.663v-4.747h-3.656l-.007-1.22h4.9v5.967h.9z" class="cls-1" data-name="Path 172" transform="translate(-92.052 -85.814)"/>
    <path id="Path_173" d="M148.517 140.214v-.071H142.8v-1.063h3.659v-4.89H142.8v-1.077h4.751v5.967h.9v1.134h.146v-1.277h-.9v-5.967h-5.047l.007 1.362h3.652v4.605h-3.659l.007 1.351h5.932v-.075z" class="cls-1" data-name="Path 173" transform="translate(-91.923 -85.685)"/>
    <path id="Path_174" d="M165.786 136.782l.765-.391V134.4h-.939v-1.21h2.109v4l-1.181.612 1.885 2.56h-1.533l-3.2-4.538a2.187 2.187 0 0 0-.512 1.565v1.778h1.067v1.2h-2.23v-2.742a4.47 4.47 0 0 1 .846-2.87l-1.113-1.555h1.55z" class="cls-1" data-name="Path 174" transform="translate(-104.231 -85.827)"/>
    <path id="Path_175" d="M165.541 136.659l.032.064.8-.409v-2.105h-.939v-1.067h1.966v3.933h.071l-.032-.064-1.255.651 1.849 2.514h-1.355l-3.228-4.576-.06.064a2.258 2.258 0 0 0-.53 1.611v1.842h1.067v1.067h-2.084v-2.671a4.459 4.459 0 0 1 .829-2.827l.036-.039-1.067-1.5h1.376l2.489 3.62.057-.028-.032-.064.06-.039-2.489-3.631h-1.732l1.191 1.678.06-.043-.057-.046a4.563 4.563 0 0 0-.861 2.916v2.813h2.354v-1.344h-1.067v-1.714a2.105 2.105 0 0 1 .494-1.515l-.053-.05-.06.043 3.225 4.566h1.71l-1.913-2.607 1.141-.594V133h-2.251v1.355h.939v1.874l-.711.356.032.064.06-.039z" class="cls-1" data-name="Path 175" transform="translate(-103.986 -85.704)"/>
    <path id="Path_176" d="M193.542 135.533h-.462v-1.191h.185a2.8 2.8 0 0 0 1.462-.288 1.775 1.775 0 0 0 .665-1.625v-2.852h-4.214v-2.757h-.868v-1.12h2.023v2.656h4.314v4.285a2.909 2.909 0 0 1-.633 1.945 3.016 3.016 0 0 1-2.454.946" class="cls-1" data-name="Path 176" transform="translate(-122.635 -81)"/>
    <path id="Path_177" d="M193.439 135.4v-.075h-.391V134.3h.114a2.877 2.877 0 0 0 1.5-.3 1.867 1.867 0 0 0 .711-1.686v-2.937h-4.21v-2.759h-.863v-.974h1.856v2.656h4.31v4.214a2.845 2.845 0 0 1-.612 1.9 2.953 2.953 0 0 1-2.4.917v.146a3.093 3.093 0 0 0 2.511-.971 3.012 3.012 0 0 0 .647-1.991v-4.346h-4.328V125.5h-2.134v1.262h.868v2.756h4.2v2.8a1.707 1.707 0 0 1-.633 1.565 2.72 2.72 0 0 1-1.422.277h-.256v1.319h.533z" class="cls-1" data-name="Path 177" transform="translate(-122.532 -80.871)"/>
    <path id="Path_178" d="M217.494 140.359h-1.238V134.4h-2.425v3.247a3.314 3.314 0 0 1-.6 2.2 2.493 2.493 0 0 1-1.924.711h-.427v-1.209h.327a1.422 1.422 0 0 0 1.021-.3 2.152 2.152 0 0 0 .356-1.447v-3.2h-1.174v-1.22h6.09z" class="cls-1" data-name="Path 178" transform="translate(-135.89 -85.827)"/>
    <path id="Path_179" d="M217.352 140.237v-.075h-1.17v-5.953h-2.557v3.318a3.237 3.237 0 0 1-.587 2.159 2.393 2.393 0 0 1-1.867.679h-.356V139.3h.256a1.5 1.5 0 0 0 1.067-.32 2.227 2.227 0 0 0 .356-1.5v-3.272h-1.173v-1.067h5.949v7.112h.142V133h-6.222v1.362h1.17v3.138a2.1 2.1 0 0 1-.331 1.4l.053.05-.05-.05a1.422 1.422 0 0 1-.974.277h-.4v1.351h.5a2.5 2.5 0 0 0 1.977-.729 3.358 3.358 0 0 0 .619-2.251v-3.193h2.283v5.956h1.383v-.071z" class="cls-1" data-name="Path 179" transform="translate(-135.748 -85.704)"/>
    <path id="Path_180" d="M6.81 50.082h5.914v-4.726q0-2.379-1.017-3.151a5.323 5.323 0 0 0-2.973-.587H6.81zM0 37.65h9.879a7.028 7.028 0 0 1 5.281 1.991 7.964 7.964 0 0 1 1.981 5.69v8.748H2.393V41.633H0z" class="cls-1" data-name="Path 180" transform="translate(0 -24.261)"/>
    <path id="Path_181" d="M52.86 37.65h8.154v9.527l-4.388.014v-5.572H52.86z" class="cls-1" data-name="Path 181" transform="translate(-34.063 -24.261)"/>
    <path id="Path_182" d="M81.24 37.65h13.307v16.429h-4.4v-12.46h-8.9z" class="cls-1" data-name="Path 182" transform="translate(-52.351 -24.261)"/>
    <path id="Path_183" d="M125.065 37.65h16.162v16.429h-4.4V41.633h-4.5v6.33q0 6.671-6.739 6.675h-1.778v-3.983h1.458a2.753 2.753 0 0 0 1.956-.573 3.468 3.468 0 0 0 .736-2.535v-5.928h-2.9z" class="cls-1" data-name="Path 183" transform="translate(-79.782 -24.261)"/>
    <path id="Path_184" d="M185.832 54.079h-6.9v-6.561a8.367 8.367 0 0 1 2.112-5.9l-3.179-3.954h5.455l7.094 8.89v-4.935h-2.678V37.65h7.112v9.555h-3.883l5.405 6.874h-5.5l-6.956-8.89a3.012 3.012 0 0 0-.676 2.077v2.82h2.589z" class="cls-1" data-name="Path 184" transform="translate(-114.618 -24.261)"/>
</svg>
