<?xml version="1.0" encoding="UTF-8"?>
<svg xmlns="http://www.w3.org/2000/svg" xmlns:xlink="http://www.w3.org/1999/xlink" width="30pt" height="30pt" viewBox="0 0 30 30" version="1.1">
<g id="surface551626">
<path style=" stroke:none;fill-rule:nonzero;fill:rgb(100%,100%,100%);fill-opacity:1;" d="M 3.75 6.25 C 3.300781 6.242188 2.878906 6.480469 2.652344 6.871094 C 2.425781 7.257812 2.425781 7.742188 2.652344 8.128906 C 2.878906 8.519531 3.300781 8.757812 3.75 8.75 L 26.25 8.75 C 26.699219 8.757812 27.121094 8.519531 27.347656 8.128906 C 27.574219 7.742188 27.574219 7.257812 27.347656 6.871094 C 27.121094 6.480469 26.699219 6.242188 26.25 6.25 Z M 3.75 13.75 C 3.300781 13.742188 2.878906 13.980469 2.652344 14.371094 C 2.425781 14.757812 2.425781 15.242188 2.652344 15.628906 C 2.878906 16.019531 3.300781 16.257812 3.75 16.25 L 26.25 16.25 C 26.699219 16.257812 27.121094 16.019531 27.347656 15.628906 C 27.574219 15.242188 27.574219 14.757812 27.347656 14.371094 C 27.121094 13.980469 26.699219 13.742188 26.25 13.75 Z M 3.75 21.25 C 3.300781 21.242188 2.878906 21.480469 2.652344 21.871094 C 2.425781 22.257812 2.425781 22.742188 2.652344 23.128906 C 2.878906 23.519531 3.300781 23.757812 3.75 23.75 L 26.25 23.75 C 26.699219 23.757812 27.121094 23.519531 27.347656 23.128906 C 27.574219 22.742188 27.574219 22.257812 27.347656 21.871094 C 27.121094 21.480469 26.699219 21.242188 26.25 21.25 Z M 3.75 21.25 "/>
</g>
</svg>
